<svg xmlns="http://www.w3.org/2000/svg" width="282" height="314" style="shape-rendering:geometricPrecision;text-rendering:geometricPrecision;image-rendering:optimizeQuality;fill-rule:evenodd;clip-rule:evenodd"><path style="opacity:1" fill="#499ad3" d="M123.5 27.5v19c1.291-.237 2.291.096 3 1-8.663-1.299-11.83-6.299-9.5-15 1.159-2.993 3.325-4.66 6.5-5z"/><path style="opacity:1" fill="#2d6db4" d="M131.5 27.5c5.113 1.041 7.446 4.208 7 9.5.37 4.776-1.63 7.943-6 9.5h-4v-19h3z"/><path style="opacity:1" fill="#3081c2" d="M131.5 27.5h-3v19h4c-1.765.961-3.765 1.295-6 1-.709-.904-1.709-1.237-3-1v-19c2.667-1.333 5.333-1.333 8 0z"/><path style="opacity:1" fill="#ee7424" d="M180.5 79.5c3.292.147 6.292 1.147 9 3 1.074 2.999.907 5.999-.5 9-.417 1.256-1.25 1.923-2.5 2a85.119 85.119 0 0 0-14-2c-2.322-3.437-3.988-7.27-5-11.5a84.94 84.94 0 0 1 13-.5z"/><path style="opacity:1" fill="#f2892d" d="M180.5 79.5a84.94 84.94 0 0 0-13 .5c1.012 4.23 2.678 8.063 5 11.5-6.367 1.684-12.367 4.351-18 8a1065.986 1065.986 0 0 0-7-12c-.825-.886-1.825-1.219-3-1 11.224-6.647 23.224-8.98 36-7z"/><path style="opacity:1" fill="#f27f41" d="M189.5 82.5c9.951 7.794 13.118 17.794 9.5 30-1.692-8.073-5.858-14.406-12.5-19 1.25-.077 2.083-.744 2.5-2 1.407-3.001 1.574-6.001.5-9z"/><path style="opacity:1" fill="#f39320" d="M144.5 86.5c1.175-.219 2.175.114 3 1 2.388 4.034 4.722 8.034 7 12a99.97 99.97 0 0 0-2 8c-2.894-1.382-5.394-3.382-7.5-6l-6-8c-.579-1.428-.412-2.762.5-4 1.159-1.75 2.826-2.75 5-3z"/><path style="opacity:1" fill="#f7a52c" d="M139.5 89.5c-.912 1.238-1.079 2.572-.5 4l6 8c2.106 2.618 4.606 4.618 7.5 6 .008 4.013-1.659 7.013-5 9a7.248 7.248 0 0 1-2.5-2 52.745 52.745 0 0 0 0-7 83.084 83.084 0 0 0-7.5 8c-1.729-.736-2.729-2.07-3-4a6708.16 6708.16 0 0 0-9-10c3.913-4.945 8.58-8.945 14-12z"/><path style="opacity:1" fill="#fab73b" d="M125.5 101.5a6708.16 6708.16 0 0 1 9 10c-2.088 1.836-3.421 4.169-4 7-.901.79-1.568 1.79-2 3-.467 2.797-2.133 4.131-5 4a8.43 8.43 0 0 0-.5-4c-1.011.837-2.178 1.17-3.5 1a19.22 19.22 0 0 1 1-6c3.978-5.717 3.644-6.05-1-1-.929-1.189-1.262-2.522-1-4 1.351-4.042 3.685-7.375 7-10z"/><path style="opacity:1" fill="#fcbe55" d="M134.5 111.5c.271 1.93 1.271 3.264 3 4l-3.5 7c-1.292 1.291-2.458 1.291-3.5 0v-4c.579-2.831 1.912-5.164 4-7z"/><path style="opacity:.314" fill="#fee5b2" d="M118.5 111.5c-.262 1.478.071 2.811 1 4 4.644-5.05 4.978-4.717 1 1h-3c-.284-1.915.049-3.581 1-5z"/><path style="opacity:.251" fill="#fdeecf" d="M130.5 118.5v4l-2-1c.432-1.21 1.099-2.21 2-3z"/><path style="opacity:1" fill="#f7ea3e" d="M90.5 138.5c-1.751 3.81-4.251 7.143-7.5 10-.67-.752-1.504-1.086-2.5-1-9.21-13.299-6.21-23.132 9-29.5 2.865-.837 5.698-1.67 8.5-2.5-3.734 5.285-6.9 11.118-9.5 17.5a18.163 18.163 0 0 1 2 5.5z"/><path style="opacity:1" fill="#87bb68" d="M148.5 142.5a6.547 6.547 0 0 0-3 3c-1.208-.734-2.541-1.067-4-1-3.795-1.117-7.795-1.783-12-2 5.634-3.328 11.634-3.828 18-1.5.556.383.889.883 1 1.5z"/><path style="opacity:1" fill="#e3e145" d="M90.5 138.5c2.354 3.351 5.354 6.018 9 8a76.28 76.28 0 0 1-2 12h-3a56.247 56.247 0 0 1-14-11c.996-.086 1.83.248 2.5 1 3.249-2.857 5.749-6.19 7.5-10z"/><path style="opacity:1" fill="#246643" d="M129.5 142.5c4.205.217 8.205.883 12 2-4.405-.47-8.405.53-12 3-1.333-1.667-1.333-3.333 0-5z"/><path style="opacity:1" fill="#3493cd" d="M141.5 144.5c1.459-.067 2.792.266 4 1 0 .667.333 1 1 1v1c-1.543 4.167-1.877 8.501-1 13 .683-.363 1.35-.696 2-1v3l-2-1c-1.4.6-2.4 1.6-3 3h-1c-.06-.543-.393-.876-1-1-1.26 1.853-1.26 3.686 0 5.5a51.22 51.22 0 0 1-4 2.5c-1.915.284-3.581-.049-5-1 1.535-1.601 2.702-3.268 3.5-5-2.167 1.964-4.501 2.298-7 1-.617-.949-.451-1.782.5-2.5-.937-.692-1.603-.525-2 .5-3.18.324-4.347-1.01-3.5-4a23.162 23.162 0 0 0 6.5-4.5 195.478 195.478 0 0 1-10 2.5c-.134-1.792.199-3.458 1-5a64.735 64.735 0 0 1 9-6c3.595-2.47 7.595-3.47 12-3z"/><path style="opacity:1" fill="#427a50" d="M148.5 142.5c1.406.473 2.073 1.473 2 3l-4 1c-.667 0-1-.333-1-1a6.547 6.547 0 0 1 3-3z"/><path style="opacity:1" fill="#50874d" d="M129.5 142.5c-1.333 1.667-1.333 3.333 0 5a64.735 64.735 0 0 0-9 6c-.17-1.322.163-2.489 1-3.5a2.428 2.428 0 0 0-2-.5c2.775-3.105 6.108-5.438 10-7z"/><path style="opacity:1" fill="#0a4430" d="M150.5 145.5h1c.646 4.506-1.021 5.173-5 2v-1l4-1z"/><path style="opacity:1" fill="#2e80c1" d="M151.5 145.5a100.373 100.373 0 0 1 18 8c-1.617 1.089-2.45 2.756-2.5 5-.736 3.092-.569 6.092.5 9a54.343 54.343 0 0 1-9-4c.803-.923.97-1.923.5-3a38.929 38.929 0 0 0-5.5-5c-.929 1.189-1.262 2.522-1 4h-2c-1-1.333-2-1.333-3 0-.65.304-1.317.637-2 1-.877-4.499-.543-8.833 1-13 3.979 3.173 5.646 2.506 5-2z"/><path style="opacity:1" fill="#f18329" d="M45.5 150.5c.932 2.933 2.932 4.933 6 6 1.333 2.333 1.333 4.667 0 7-.65.304-1.316.637-2 1-5.763-3.426-10.096-8.093-13-14 2.896-1.275 5.896-1.275 9 0z"/><path style="opacity:1" fill="#f38a2d" d="M253.5 163.5c-.617.111-1.117.444-1.5 1l-11.5-7.5c-1.964-1.451-3.297-3.284-4-5.5 4.087-2.471 8.42-2.637 13-.5 4.268 3.303 5.602 7.47 4 12.5z"/><path style="opacity:1" fill="#f89a62" d="M45.5 150.5c3 1 5 3 6 6-3.068-1.067-5.068-3.067-6-6z"/><path style="opacity:1" fill="#f4982c" d="M236.5 151.5c.703 2.216 2.036 4.049 4 5.5l11.5 7.5c.383-.556.883-.889 1.5-1-.919 2.589-2.586 4.589-5 6a2.428 2.428 0 0 0-.5-2l-14-12c-.383.556-.883.889-1.5 1 .231-2.563 1.565-4.23 4-5z"/><path style="opacity:1" fill="#f49520" d="M36.5 150.5c2.904 5.907 7.237 10.574 13 14 .684-.363 1.35-.696 2-1-1 3-3 5-6 6-1.478.262-2.811-.071-4-1a49.605 49.605 0 0 0-9.5-11 4.932 4.932 0 0 1-.5-3c1.039-2.031 2.705-3.364 5-4z"/><path style="opacity:1" fill="#b9d047" d="M99.5 146.5a58.37 58.37 0 0 1 9 5c-.107 1.879.393 2.212 1.5 1 .499 3.986.666 7.986.5 12h-3c-4.762-1.216-9.095-3.216-13-6h3a76.28 76.28 0 0 0 2-12z"/><path style="opacity:1" fill="#96c147" d="M108.5 151.5c1.792-.134 3.458.199 5 1 1.068.934 2.401 1.268 4 1-.592 4.261-.592 8.594 0 13h-3c-2.652.09-4.985-.576-7-2h3a72.367 72.367 0 0 0-.5-12c-1.107 1.212-1.607.879-1.5-1z"/><path style="opacity:1" fill="#f59f16" d="M248.5 169.5h-1a16.873 16.873 0 0 1-8-1 64.292 64.292 0 0 0-6.5-7 12.93 12.93 0 0 1-.5-5c.617-.111 1.117-.444 1.5-1l14 12c.464.594.631 1.261.5 2z"/><path style="opacity:1" fill="#f8ab2e" d="M31.5 154.5a4.932 4.932 0 0 0 .5 3 49.605 49.605 0 0 1 9.5 11c1.189.929 2.522 1.262 4 1-4.712 1.639-9.212.973-13.5-2-3.088-4.317-3.255-8.65-.5-13z"/><path style="opacity:1" fill="#2c6bb2" d="M169.5 153.5a90.361 90.361 0 0 1 18 12.5 56.289 56.289 0 0 1 10.5 14.5c3.111 15.063-3.055 23.063-18.5 24-1.915.284-3.581-.049-5-1 0-.667.333-1 1-1 3.333-1.333 5.667-3.667 7-7 3.578-4.559 3.745-9.226.5-14a102.526 102.526 0 0 0-15.5-14c-1.069-2.908-1.236-5.908-.5-9 .05-2.244.883-3.911 2.5-5z"/><path style="opacity:1" fill="#5e9a4a" d="M158.5 163.5a17.902 17.902 0 0 1-6-4c-.262-1.478.071-2.811 1-4a38.929 38.929 0 0 1 5.5 5c.47 1.077.303 2.077-.5 3z"/><path style="opacity:1" fill="#6b9e89" d="M151.5 159.5h1a17.902 17.902 0 0 0 6 4c-1.171.845-2.505 1.511-4 2-.115-2.447-1.115-4.447-3-6z"/><path style="opacity:1" fill="#fbbb4d" d="M232.5 156.5a12.93 12.93 0 0 0 .5 5 64.292 64.292 0 0 1 6.5 7 16.873 16.873 0 0 0 8 1c-11.56 2.763-16.56-1.571-15-13z"/><path style="opacity:1" fill="#70ab4a" d="M119.5 149.5a2.428 2.428 0 0 1 2 .5c-.837 1.011-1.17 2.178-1 3.5-.801 1.542-1.134 3.208-1 5a195.478 195.478 0 0 0 10-2.5 23.162 23.162 0 0 1-6.5 4.5c-.847 2.99.32 4.324 3.5 4v4h-3c-3.281.08-6.281-.587-9-2h3c-.592-4.406-.592-8.739 0-13-1.599.268-2.932-.066-4-1 2.858.472 4.858-.528 6-3z"/><path style="opacity:1" fill="#84ae46" d="M150.5 159.5h1c1.885 1.553 2.885 3.553 3 6-.709.904-1.709 1.237-3 1a12.805 12.805 0 0 0-3-6c.457-.798 1.124-1.131 2-1z"/><path style="opacity:1" fill="#579b5f" d="M131.5 170.5c-2.928-.065-5.595-.732-8-2h3v-4c.397-1.025 1.063-1.192 2-.5-.951.718-1.117 1.551-.5 2.5 2.499 1.298 4.833.964 7-1-.798 1.732-1.965 3.399-3.5 5z"/><path style="opacity:1" fill="#4a895a" d="M150.5 159.5c-.876-.131-1.543.202-2 1a12.805 12.805 0 0 1 3 6c-1.146 1.975-2.813 3.475-5 4.5-3.317.498-6.65.665-10 .5a51.22 51.22 0 0 0 4-2.5c-1.26-1.814-1.26-3.647 0-5.5.607.124.94.457 1 1-1.121 1.589-.954 3.256.5 5 1.011.837 2.178 1.17 3.5 1-.115-2.447-1.115-4.447-3-6 .6-1.4 1.6-2.4 3-3-.423 2.788.577 4.788 3 6 1.152-1.897.819-3.564-1-5v-3c1-1.333 2-1.333 3 0z"/><path style="opacity:1" fill="#74af4a" d="M141.5 164.5h1c1.885 1.553 2.885 3.553 3 6-1.322.17-2.489-.163-3.5-1-1.454-1.744-1.621-3.411-.5-5z"/><path style="opacity:1" fill="#72ad4c" d="m145.5 161.5 2 1c1.819 1.436 2.152 3.103 1 5-2.423-1.212-3.423-3.212-3-6z"/><path style="opacity:1" fill="#f9b331" d="M148.5 189.5c-1.029 3.864-.696 3.864 1 0 1.756 1.052 2.423 2.719 2 5-.904.709-1.237 1.709-1 3a325.386 325.386 0 0 0-5 6c.855.793 1.689.46 2.5-1 1.269 1.405 1.769 3.071 1.5 5-1 1.667-2.333 3-4 4a179.747 179.747 0 0 0-11-15c.703-4.078 2.87-7.078 6.5-9 .399.228.565.562.5 1a67.164 67.164 0 0 1-2.5 10 47.404 47.404 0 0 0 4.5-8c.132-3.297 1.798-4.963 5-5v4z"/><path style="opacity:.502" fill="#fde0a9" d="m141.5 188.5 2 2a47.404 47.404 0 0 1-4.5 8 67.164 67.164 0 0 0 2.5-10z"/><path style="opacity:.063" fill="#fff1d5" d="M148.5 189.5h1c-1.696 3.864-2.029 3.864-1 0z"/><path style="opacity:.502" fill="#fcd7a0" d="M122.5 196.5c.417-.624 1.084-.957 2-1 1.213.247 1.88.914 2 2-1.208-.734-2.541-1.067-4-1z"/><path style="opacity:.125" fill="#feecc7" d="m151.5 194.5 2 2a5.727 5.727 0 0 0-3 1c-.237-1.291.096-2.291 1-3z"/><path style="opacity:1" fill="#fec663" d="M153.5 196.5c.704 4.209-.629 7.876-4 11 .269-1.929-.231-3.595-1.5-5-.811 1.46-1.645 1.793-2.5 1a325.386 325.386 0 0 1 5-6 5.727 5.727 0 0 1 3-1z"/><path style="opacity:.502" fill="#fddfa5" d="M144.5 196.5c.834 1.763.334 3.43-1.5 5-.122-1.782.378-3.448 1.5-5z"/><path style="opacity:.812" fill="#789ecc" d="M182.5 195.5c-1.333 3.333-3.667 5.667-7 7 2-2.667 4.333-5 7-7z"/><path style="opacity:1" fill="#f6a329" d="M122.5 196.5c1.459-.067 2.792.266 4 1-.338 2.511-.338 4.845 0 7 3.048-2.382 5.715-5.048 8-8a179.747 179.747 0 0 1 11 15c-4.42 5.756-9.753 10.422-16 14a95.422 95.422 0 0 0-10.5-15c-.236 1.619-1.069 2.619-2.5 3a103.264 103.264 0 0 0 3.5-14c.377-1.442 1.21-2.442 2.5-3z"/><path style="opacity:.686" fill="#93b5d9" d="M174.5 203.5c1.419.951 3.085 1.284 5 1-2.193 1.297-4.527 1.297-7 0 .457-.798 1.124-1.131 2-1z"/><path style="opacity:1" fill="#f27e3f" d="M85.5 220.5h-3a41.742 41.742 0 0 0-1 9c-8.317-5.754-11.483-13.754-9.5-24l1-2c1.368 7.849 5.535 13.516 12.5 17z"/><path style="opacity:1" fill="#f38e27" d="M129.5 225.5a35.158 35.158 0 0 1-10 5c.111-.617.444-1.117 1-1.5-2.409-4.675-5.409-8.842-9-12.5 1.465-1.237 3.132-2.237 5-3 1.431-.381 2.264-1.381 2.5-3a95.422 95.422 0 0 1 10.5 15z"/><path style="opacity:1" fill="#f2862e" d="M111.5 216.5c3.591 3.658 6.591 7.825 9 12.5-.556.383-.889.883-1 1.5-9.516 3.697-19.182 4.697-29 3h13l-3-12h-3a88.33 88.33 0 0 0 14-5z"/><path style="opacity:1" fill="#ee7420" d="M85.5 220.5c4.02.146 8.02.479 12 1h3l3 12h-13c-3.665-.002-6.665-1.335-9-4a41.742 41.742 0 0 1 1-9h3z"/><path style="opacity:1" fill="#3777ba" d="M123.5 288.5a50.512 50.512 0 0 1 0-20c8.406-1.458 13.406 2.042 15 10.5-1.938 8.291-6.938 11.458-15 9.5z"/><path style="opacity:1" fill="#4b9cd5" d="M123.5 268.5a50.512 50.512 0 0 0 0 20c-7.881-2.862-10.048-8.195-6.5-16 1.638-2.234 3.805-3.567 6.5-4z"/></svg>